<svg id="visual" viewBox="0 0 3840 2160" width="3840" height="2160" xmlns="http://www.w3.org/2000/svg" xmlns:xlink="http://www.w3.org/1999/xlink" version="1.1"><rect x="0" y="0" width="3840" height="2160" fill="#001220"></rect><defs><linearGradient id="grad1_0" x1="43.8%" y1="0%" x2="100%" y2="100%"><stop offset="14.444444444444446%" stop-color="#001220" stop-opacity="1"></stop><stop offset="85.55555555555554%" stop-color="#001220" stop-opacity="1"></stop></linearGradient></defs><defs><linearGradient id="grad2_0" x1="0%" y1="0%" x2="56.3%" y2="100%"><stop offset="14.444444444444446%" stop-color="#001220" stop-opacity="1"></stop><stop offset="85.55555555555554%" stop-color="#001220" stop-opacity="1"></stop></linearGradient></defs><g transform="translate(3840, 0)"><path d="M0 1620C-295.8 1584.8 -591.7 1549.7 -810 1403C-1028.3 1256.2 -1169.2 997.9 -1291.2 745.5C-1413.3 493.1 -1516.7 246.5 -1620 0L0 0Z" fill="#39FF14"></path></g><g transform="translate(0, 2160)"><path d="M0 -1620C249.5 -1521.7 498.9 -1423.5 751 -1300.8C1003.1 -1178.1 1257.7 -1030.9 1403 -810C1548.2 -589.1 1584.1 -294.6 1620 0L0 0Z" fill="#39FF14"></path></g></svg>