<svg id="visual" viewBox="0 0 3840 2160" width="3840" height="2160" xmlns="http://www.w3.org/2000/svg" xmlns:xlink="http://www.w3.org/1999/xlink" version="1.1"><rect x="0" y="0" width="3840" height="2160" fill="#001122"></rect><defs><linearGradient id="grad1_0" x1="43.8%" y1="100%" x2="100%" y2="0%"><stop offset="14.444444444444446%" stop-color="#001122" stop-opacity="1"></stop><stop offset="85.55555555555554%" stop-color="#001122" stop-opacity="1"></stop></linearGradient></defs><defs><linearGradient id="grad2_0" x1="0%" y1="100%" x2="56.3%" y2="0%"><stop offset="14.444444444444446%" stop-color="#001122" stop-opacity="1"></stop><stop offset="85.55555555555554%" stop-color="#001122" stop-opacity="1"></stop></linearGradient></defs><g transform="translate(3840, 2160)"><path d="M-1620 0C-1578.6 -285.1 -1537.3 -570.2 -1403 -810C-1268.6 -1049.8 -1041.3 -1244.3 -792 -1371.8C-542.7 -1499.2 -271.3 -1559.6 0 -1620L0 0Z" fill="#0FFF50"></path></g><g transform="translate(0, 0)"><path d="M1620 0C1586.3 298.4 1552.6 596.7 1403 810C1253.3 1023.3 987.7 1151.4 734.5 1272.2C481.3 1393 240.7 1506.5 0 1620L0 0Z" fill="#0FFF50"></path></g></svg>