<svg id="visual" viewBox="0 0 3840 2160" width="3840" height="2160" xmlns="http://www.w3.org/2000/svg" xmlns:xlink="http://www.w3.org/1999/xlink" version="1.1"><rect x="0" y="0" width="3840" height="2160" fill="#001220"></rect><defs><linearGradient id="grad1_0" x1="43.8%" y1="100%" x2="100%" y2="0%"><stop offset="14.444444444444446%" stop-color="#001220" stop-opacity="1"></stop><stop offset="85.55555555555554%" stop-color="#001220" stop-opacity="1"></stop></linearGradient></defs><defs><linearGradient id="grad2_0" x1="0%" y1="100%" x2="56.3%" y2="0%"><stop offset="14.444444444444446%" stop-color="#001220" stop-opacity="1"></stop><stop offset="85.55555555555554%" stop-color="#001220" stop-opacity="1"></stop></linearGradient></defs><g transform="translate(3840, 2160)"><path d="M-1620 0C-1584.8 -295.8 -1549.7 -591.7 -1403 -810C-1256.2 -1028.3 -997.9 -1169.2 -745.5 -1291.2C-493.1 -1413.3 -246.5 -1516.7 0 -1620L0 0Z" fill="#39FF14"></path></g><g transform="translate(0, 0)"><path d="M1620 0C1521.7 249.5 1423.5 498.9 1300.8 751C1178.1 1003.1 1030.9 1257.7 810 1403C589.1 1548.2 294.6 1584.1 0 1620L0 0Z" fill="#39FF14"></path></g></svg>