<svg id="visual" viewBox="0 0 960 540" width="960" height="540" xmlns="http://www.w3.org/2000/svg" xmlns:xlink="http://www.w3.org/1999/xlink" version="1.1"><rect x="0" y="0" width="960" height="540" fill="#001220"></rect><defs><linearGradient id="grad1_0" x1="43.8%" y1="100%" x2="100%" y2="0%"><stop offset="14.444444444444446%" stop-color="#001220" stop-opacity="1"></stop><stop offset="85.55555555555554%" stop-color="#001220" stop-opacity="1"></stop></linearGradient></defs><defs><linearGradient id="grad2_0" x1="0%" y1="100%" x2="56.3%" y2="0%"><stop offset="14.444444444444446%" stop-color="#001220" stop-opacity="1"></stop><stop offset="85.55555555555554%" stop-color="#001220" stop-opacity="1"></stop></linearGradient></defs><g transform="translate(960, 540)"><path d="M-486 0C-446.5 -53 -407 -105.9 -380.6 -157.7C-354.2 -209.4 -341 -260 -312.5 -312.5C-284.1 -365.1 -240.6 -419.8 -186 -449C-131.4 -478.3 -65.7 -482.1 0 -486L0 0Z" fill="#0066FF"></path></g><g transform="translate(0, 0)"><path d="M486 0C486.9 70 487.7 140 449 186C410.3 232 332 254.1 277.2 277.2C222.4 300.3 191.1 324.4 148.9 359.4C106.6 394.4 53.3 440.2 0 486L0 0Z" fill="#0066FF"></path></g></svg>