<svg id="visual" viewBox="0 0 3840 2160" width="3840" height="2160" xmlns="http://www.w3.org/2000/svg" xmlns:xlink="http://www.w3.org/1999/xlink" version="1.1"><rect x="0" y="0" width="3840" height="2160" fill="#0FFF50"></rect><defs><linearGradient id="grad1_0" x1="43.8%" y1="0%" x2="100%" y2="100%"><stop offset="14.444444444444446%" stop-color="#0fff50" stop-opacity="1"></stop><stop offset="85.55555555555554%" stop-color="#0fff50" stop-opacity="1"></stop></linearGradient></defs><defs><linearGradient id="grad2_0" x1="0%" y1="0%" x2="56.3%" y2="100%"><stop offset="14.444444444444446%" stop-color="#0fff50" stop-opacity="1"></stop><stop offset="85.55555555555554%" stop-color="#0fff50" stop-opacity="1"></stop></linearGradient></defs><g transform="translate(3840, 0)"><path d="M0 1620C-285.1 1578.6 -570.2 1537.3 -810 1403C-1049.8 1268.6 -1244.3 1041.3 -1371.8 792C-1499.2 542.7 -1559.6 271.3 -1620 0L0 0Z" fill="#001122"></path></g><g transform="translate(0, 2160)"><path d="M0 -1620C298.4 -1586.3 596.7 -1552.6 810 -1403C1023.3 -1253.3 1151.4 -987.7 1272.2 -734.5C1393 -481.3 1506.5 -240.7 1620 0L0 0Z" fill="#001122"></path></g></svg>