<svg id="visual" viewBox="0 0 900 600" width="900" height="600" xmlns="http://www.w3.org/2000/svg" xmlns:xlink="http://www.w3.org/1999/xlink" version="1.1"><rect x="0" y="0" width="900" height="600" fill="#001220"></rect><path d="M0 474L21.5 476.8C43 479.7 86 485.3 128.8 484.5C171.7 483.7 214.3 476.3 257.2 477.5C300 478.7 343 488.3 385.8 490.3C428.7 492.3 471.3 486.7 514.2 486.2C557 485.7 600 490.3 642.8 486.7C685.7 483 728.3 471 771.2 471C814 471 857 483 878.5 489L900 495L900 601L878.5 601C857 601 814 601 771.2 601C728.3 601 685.7 601 642.8 601C600 601 557 601 514.2 601C471.3 601 428.7 601 385.8 601C343 601 300 601 257.2 601C214.3 601 171.7 601 128.8 601C86 601 43 601 21.5 601L0 601Z" fill="#fa7268"></path><path d="M0 494L21.5 499C43 504 86 514 128.8 518C171.7 522 214.3 520 257.2 522C300 524 343 530 385.8 530.7C428.7 531.3 471.3 526.7 514.2 526.3C557 526 600 530 642.8 532C685.7 534 728.3 534 771.2 527C814 520 857 506 878.5 499L900 492L900 601L878.5 601C857 601 814 601 771.2 601C728.3 601 685.7 601 642.8 601C600 601 557 601 514.2 601C471.3 601 428.7 601 385.8 601C343 601 300 601 257.2 601C214.3 601 171.7 601 128.8 601C86 601 43 601 21.5 601L0 601Z" fill="#eb5967"></path><path d="M0 541L21.5 539.8C43 538.7 86 536.3 128.8 533.3C171.7 530.3 214.3 526.7 257.2 525.8C300 525 343 527 385.8 529.2C428.7 531.3 471.3 533.7 514.2 536C557 538.3 600 540.7 642.8 538.2C685.7 535.7 728.3 528.3 771.2 524.8C814 521.3 857 521.7 878.5 521.8L900 522L900 601L878.5 601C857 601 814 601 771.2 601C728.3 601 685.7 601 642.8 601C600 601 557 601 514.2 601C471.3 601 428.7 601 385.8 601C343 601 300 601 257.2 601C214.3 601 171.7 601 128.8 601C86 601 43 601 21.5 601L0 601Z" fill="#da3f67"></path><path d="M0 557L21.5 556.8C43 556.7 86 556.3 128.8 559.8C171.7 563.3 214.3 570.7 257.2 570.8C300 571 343 564 385.8 563.7C428.7 563.3 471.3 569.7 514.2 573.3C557 577 600 578 642.8 574.3C685.7 570.7 728.3 562.3 771.2 560.8C814 559.3 857 564.7 878.5 567.3L900 570L900 601L878.5 601C857 601 814 601 771.2 601C728.3 601 685.7 601 642.8 601C600 601 557 601 514.2 601C471.3 601 428.7 601 385.8 601C343 601 300 601 257.2 601C214.3 601 171.7 601 128.8 601C86 601 43 601 21.5 601L0 601Z" fill="#c62368"></path></svg>