<svg id="visual" viewBox="0 0 2560 1080" width="2560" height="1080" xmlns="http://www.w3.org/2000/svg" xmlns:xlink="http://www.w3.org/1999/xlink" version="1.1"><rect x="0" y="0" width="2560" height="1080" fill="#140021"></rect><path d="M990 0L1006 0L1006 154L930 154L930 309L1040 309L1040 463L1061 463L1061 617L705 617L705 771L1042 771L1042 926L864 926L864 1080L0 1080L0 926L0 926L0 771L0 771L0 617L0 617L0 463L0 463L0 309L0 309L0 154L0 154L0 0L0 0Z" fill="#9900ff"></path><path d="M770 0L740 0L740 154L571 154L571 309L650 309L650 463L535 463L535 617L451 617L451 771L612 771L612 926L606 926L606 1080L0 1080L0 926L0 926L0 771L0 771L0 617L0 617L0 463L0 463L0 309L0 309L0 154L0 154L0 0L0 0Z" fill="#7700c6"></path><path d="M423 0L353 0L353 154L268 154L268 309L301 309L301 463L470 463L470 617L286 617L286 771L369 771L369 926L400 926L400 1080L0 1080L0 926L0 926L0 771L0 771L0 617L0 617L0 463L0 463L0 309L0 309L0 154L0 154L0 0L0 0Z" fill="#560090"></path></svg>