<svg id="visual" viewBox="0 0 960 540" width="960" height="540" xmlns="http://www.w3.org/2000/svg" xmlns:xlink="http://www.w3.org/1999/xlink" version="1.1"><path d="M0 66L22.8 67.8C45.7 69.7 91.3 73.3 137 74.2C182.7 75 228.3 73 274 71.2C319.7 69.3 365.3 67.7 411.2 71.3C457 75 503 84 548.8 88.5C594.7 93 640.3 93 686 91.2C731.7 89.3 777.3 85.7 823 83C868.7 80.3 914.3 78.7 937.2 77.8L960 77L960 0L937.2 0C914.3 0 868.7 0 823 0C777.3 0 731.7 0 686 0C640.3 0 594.7 0 548.8 0C503 0 457 0 411.2 0C365.3 0 319.7 0 274 0C228.3 0 182.7 0 137 0C91.3 0 45.7 0 22.8 0L0 0Z" fill="#6198ff"></path><path d="M0 249L22.8 239.2C45.7 229.3 91.3 209.7 137 199.8C182.7 190 228.3 190 274 196.3C319.7 202.7 365.3 215.3 411.2 227C457 238.7 503 249.3 548.8 251.2C594.7 253 640.3 246 686 235.2C731.7 224.3 777.3 209.7 823 206.8C868.7 204 914.3 213 937.2 217.5L960 222L960 75L937.2 75.8C914.3 76.7 868.7 78.3 823 81C777.3 83.7 731.7 87.3 686 89.2C640.3 91 594.7 91 548.8 86.5C503 82 457 73 411.2 69.3C365.3 65.7 319.7 67.3 274 69.2C228.3 71 182.7 73 137 72.2C91.3 71.3 45.7 67.7 22.8 65.8L0 64Z" fill="#3c80ff"></path><path d="M0 384L22.8 382.3C45.7 380.7 91.3 377.3 137 379.2C182.7 381 228.3 388 274 384.3C319.7 380.7 365.3 366.3 411.2 366.3C457 366.3 503 380.7 548.8 391.5C594.7 402.3 640.3 409.7 686 410.7C731.7 411.7 777.3 406.3 823 395.5C868.7 384.7 914.3 368.3 937.2 360.2L960 352L960 220L937.2 215.5C914.3 211 868.7 202 823 204.8C777.3 207.7 731.7 222.3 686 233.2C640.3 244 594.7 251 548.8 249.2C503 247.3 457 236.7 411.2 225C365.3 213.3 319.7 200.7 274 194.3C228.3 188 182.7 188 137 197.8C91.3 207.7 45.7 227.3 22.8 237.2L0 247Z" fill="#0066ff"></path><path d="M0 449L22.8 446.3C45.7 443.7 91.3 438.3 137 442.8C182.7 447.3 228.3 461.7 274 461.7C319.7 461.7 365.3 447.3 411.2 442C457 436.7 503 440.3 548.8 447.5C594.7 454.7 640.3 465.3 686 470.7C731.7 476 777.3 476 823 468.8C868.7 461.7 914.3 447.3 937.2 440.2L960 433L960 350L937.2 358.2C914.3 366.3 868.7 382.7 823 393.5C777.3 404.3 731.7 409.7 686 408.7C640.3 407.7 594.7 400.3 548.8 389.5C503 378.7 457 364.3 411.2 364.3C365.3 364.3 319.7 378.7 274 382.3C228.3 386 182.7 379 137 377.2C91.3 375.3 45.7 378.7 22.8 380.3L0 382Z" fill="#0059dd"></path><path d="M0 541L22.8 541C45.7 541 91.3 541 137 541C182.7 541 228.3 541 274 541C319.7 541 365.3 541 411.2 541C457 541 503 541 548.8 541C594.7 541 640.3 541 686 541C731.7 541 777.3 541 823 541C868.7 541 914.3 541 937.2 541L960 541L960 431L937.2 438.2C914.3 445.3 868.7 459.7 823 466.8C777.3 474 731.7 474 686 468.7C640.3 463.3 594.7 452.7 548.8 445.5C503 438.3 457 434.7 411.2 440C365.3 445.3 319.7 459.7 274 459.7C228.3 459.7 182.7 445.3 137 440.8C91.3 436.3 45.7 441.7 22.8 444.3L0 447Z" fill="#004cbb"></path></svg>